# xmcd CD database file
#
# Track frame offsets:
#	150
#	13489
#	25927
#	42493
#	54918
#	68479
#	82522
#	94621
#	105734
#	117603
#	133491
#	146557
#	159382
#	174741
#	189919
#	201258
#	213522
#	228101
#	239485
#	254020
#
# Disc length: 3667 seconds
#
# Revision: 1
# Processed by: cddbd v1.5PL3 Copyright (c) Steve Scherf et al.
# Submitted via: CDex 1.51
#
DISCID=1c0e5114
DTITLE=Assassins - Book 6 - Disk 10
DYEAR=2000
DGENRE=Vocal
TTITLE0=0194 Assassins - Disk 10
TTITLE1=0195 Assassins - Disk 10
TTITLE2=0196 Assassins - Disk 10
TTITLE3=0197 Assassins - Disk 10
TTITLE4=0198 Assassins - Disk 10
TTITLE5=0199 Assassins - Disk 10
TTITLE6=0200 Assassins - Disk 10
TTITLE7=0201 Assassins - Disk 10
TTITLE8=0202 Assassins - Disk 10
TTITLE9=0203 Assassins - Disk 10
TTITLE10=0204 Assassins - Disk 10
TTITLE11=0205 Assassins - Disk 10
TTITLE12=0206 Assassins - Disk 10
TTITLE13=0207 Assassins - Disk 10
TTITLE14=0208 Assassins - Disk 10
TTITLE15=0209 Assassins - Disk 10
TTITLE16=0210 Assassins - Disk 10
TTITLE17=0211 Assassins - Disk 10
TTITLE18=0212 Assassins - Disk 10
TTITLE19=0213 Assassins - Disk 10
EXTD=YEAR: 2000
EXTT0=
EXTT1=
EXTT2=
EXTT3=
EXTT4=
EXTT5=
EXTT6=
EXTT7=
EXTT8=
EXTT9=
EXTT10=
EXTT11=
EXTT12=
EXTT13=
EXTT14=
EXTT15=
EXTT16=
EXTT17=
EXTT18=
EXTT19=
PLAYORDER=
